<svg xmlns="http://www.w3.org/2000/svg" viewBox="0 0 720 460" role="img" aria-label="Illustration of a Youth Unity Cup navy supporter cap"><defs><linearGradient id="bg" x1="0" y1="0" x2="1" y2="1"><stop stop-color="#f6f9fb"/><stop offset="1" stop-color="#e6eef3"/></linearGradient><linearGradient id="cap" x1="0" y1="0" x2="1" y2="1"><stop stop-color="#244e74"/><stop offset="1" stop-color="#0b2545"/></linearGradient><filter id="shadow" x="-.3" y="-.3" width="1.6" height="1.8"><feDropShadow dx="0" dy="17" stdDeviation="13" flood-color="#102a44" flood-opacity=".2"/></filter></defs><rect width="720" height="460" rx="28" fill="url(#bg)"/><circle cx="557" cy="91" r="100" fill="#c7f464" opacity=".46"/><path d="M0 367c145-43 253-39 370 10s222 49 350-7v90H0z" fill="#dae6ed"/><g filter="url(#shadow)"><path d="M194 260c10-104 90-169 186-169 94 0 173 62 184 169l-58 29H248z" fill="url(#cap)" stroke="#0b2545" stroke-width="8"/><path d="M192 256c48 16 94 24 143 24 78 0 155-19 229-53 48-22 80-21 101-4 12 10 14 24 4 36-49 52-142 91-267 91-92 0-164-25-210-61-13-10-11-26 0-33z" fill="#c7f464" stroke="#173d63" stroke-width="8"/><path d="M380 97v172M298 116l32 152m132-150-32 151" stroke="#fff" stroke-opacity=".18" stroke-width="5"/><circle cx="380" cy="194" r="36" fill="#f7fafb"/><path d="m380 169 7 17 19 3-14 13 4 19-16-9-17 9 3-19-13-13 18-3z" fill="#173d63"/><path d="M261 276q119 36 237-8" fill="none" stroke="#173d63" stroke-width="8" opacity=".5"/></g><rect x="40" y="34" width="154" height="34" rx="17" fill="#0b2545"/><text x="117" y="57" text-anchor="middle" fill="#fff" font-family="Arial,sans-serif" font-size="14" font-weight="700" letter-spacing="2">SUPPORTER CAP</text></svg>
